<svg xmlns="http://www.w3.org/2000/svg" xmlns:xlink="http://www.w3.org/1999/xlink" width="2240" zoomAndPan="magnify" viewBox="0 0 1680 944.999993" height="1260" preserveAspectRatio="xMidYMid meet" version="1.0"><defs><g/><clipPath id="51d6006cf4"><path d="M 710.566406 115.960938 L 1635.703125 115.960938 L 1635.703125 945 L 710.566406 945 Z M 710.566406 115.960938 " clip-rule="nonzero"/></clipPath><clipPath id="f5253a3953"><path d="M 1419 766 L 1635.886719 766 L 1635.886719 822 L 1419 822 Z M 1419 766 " clip-rule="nonzero"/></clipPath><clipPath id="8067456b5f"><path d="M 1514 607 L 1635.886719 607 L 1635.886719 674 L 1514 674 Z M 1514 607 " clip-rule="nonzero"/></clipPath></defs><rect x="-168" width="2016" fill="#ffffff" y="-94.499999" height="1133.999992" fill-opacity="1"/><rect x="-168" width="2016" fill="#ebebeb" y="-94.499999" height="1133.999992" fill-opacity="1"/><g clip-path="url(#51d6006cf4)"><path fill="#231f20" d="M 710.566406 428.003906 L 813.277344 410.125 L 822.484375 417.03125 L 867.976562 403.503906 C 879.480469 345.296875 1010.25 321.410156 1056.847656 391.152344 L 1089.929688 436.316406 C 1156.082031 484.339844 1173.835938 546.035156 1143.195312 621.394531 C 1129.390625 635.742188 1113.652344 641.878906 1095.976562 639.8125 L 1053.953125 671.195312 C 1002.449219 701.257812 984.214844 691.371094 999.253906 641.542969 L 1019.402344 591.175781 C 1004.84375 589.722656 992.175781 579.652344 981.398438 560.949219 C 942.5625 561.730469 903.027344 553.28125 862.789062 535.621094 L 844.367188 544.832031 L 845.234375 571.023438 L 800.609375 585.988281 L 939.015625 693.628906 L 1005.460938 723.875 C 1099.335938 693.738281 1109.007812 709.125 1185.222656 735.09375 L 1328.304688 697.960938 C 1323.988281 686.222656 1389.621094 660.453125 1408.042969 673.496094 L 1511.6875 645.863281 C 1468.523438 635.960938 1446.644531 612.929688 1446.054688 576.777344 L 1365.152344 543.964844 L 1346.730469 549.152344 L 1390.488281 634.925781 C 1403.1875 659.269531 1349.554688 692.96875 1330.605469 660.253906 L 1290.300781 592.035156 C 1273.527344 607.078125 1229.597656 591.816406 1225.886719 563.238281 C 1211.796875 568.960938 1199.707031 551.335938 1199.332031 534.753906 C 1185.488281 532.515625 1173.378906 515.257812 1176.582031 496.757812 C 1163.417969 500.628906 1148.386719 487.882812 1151.542969 469.132812 L 1169.101562 410.125 L 1084.167969 295.835938 L 1074.085938 296.699219 L 1058.863281 276.535156 L 1068.941406 240.292969 L 1116.132812 213.273438 L 1085.886719 178.089844 L 1073.230469 182.171875 L 1068.941406 199.96875 L 998.363281 236.007812 L 996.65625 242.007812 L 983.136719 249.515625 C 968.097656 235.660156 955.238281 203.445312 962.972656 178.089844 C 991.632812 109.574219 1097.699219 96.355469 1131.359375 145.28125 L 1165.6875 198.253906 C 1211.160156 183.035156 1239.898438 210.90625 1218.875 243.71875 L 1234.753906 249.515625 L 1249.980469 278.042969 L 1244.839844 288.980469 L 1277.65625 341.300781 C 1288.601562 359.320312 1268.5 373.667969 1249.980469 358.894531 L 1254.917969 380.773438 C 1308.519531 394.5 1382.113281 437.175781 1474.566406 474.925781 C 1510.015625 465.050781 1535.542969 471.554688 1551.144531 494.433594 L 1635.703125 506.425781 L 1635.703125 819.472656 C 1606.671875 829.164062 1538.726562 832.203125 1431.886719 828.582031 C 1401.960938 847.910156 1379.574219 845.261719 1364.75 820.636719 L 1247.410156 839.519531 C 1224.398438 858.054688 1200.921875 869.035156 1176.980469 872.460938 C 1186.222656 888.730469 1174.890625 905.523438 1159.886719 903.644531 C 1158.902344 919.109375 1149.957031 927.894531 1133.0625 930.015625 C 1127.0625 942.234375 1105.621094 948.046875 1084.808594 940.953125 C 1066.183594 964.320312 1031.347656 944.917969 1031.347656 944.917969 C 1002.304688 957.574219 984.296875 952.339844 977.332031 929.203125 C 962.28125 937.046875 942.832031 915.394531 949.300781 899.808594 C 933.574219 905.957031 909.640625 883.394531 924.003906 869.042969 C 902.128906 867.679688 887.082031 832.8125 907.59375 819.824219 L 867.253906 793.160156 L 847.429688 823.246094 L 811.871094 800.683594 L 794.085938 825.285156 L 710.566406 783.28125 L 710.566406 428.003906 " fill-opacity="1" fill-rule="evenodd"/></g><path fill="#f6c4a9" d="M 822.804688 426.058594 L 948.625 382.988281 L 1011.507812 398.015625 L 1054.582031 434.273438 C 1050.542969 458.691406 1028.886719 455.726562 989.625 425.375 C 969.574219 442.984375 950.203125 455.285156 931.519531 462.28125 C 924.871094 503.707031 939.457031 521.03125 975.273438 514.246094 C 971.425781 527.515625 971.648438 540.054688 975.960938 551.859375 C 938.386719 556.445312 900.785156 548.6875 863.152344 528.585938 L 831.699219 545.691406 C 803.222656 497.023438 800.261719 457.140625 822.804688 426.058594 " fill-opacity="1" fill-rule="evenodd"/><path stroke-linecap="butt" transform="matrix(0.141242, 0, 0, -0.141218, 710.567323, 952.477365)" fill="none" stroke-linejoin="miter" d="M 794.644521 3727.714863 L 1685.456799 4032.70749 L 2130.669343 3926.294771 L 2435.636341 3669.543315 C 2407.039635 3496.660681 2253.712616 3517.627887 1975.738254 3732.555577 C 1833.778011 3607.858791 1696.62998 3520.753605 1564.349473 3471.212357 C 1517.2783 3177.865104 1620.547255 3055.215249 1874.128682 3103.235129 C 1846.887139 3009.26996 1848.463554 2920.477439 1878.996207 2836.885228 C 1612.969404 2804.410954 1346.749008 2859.34614 1080.307359 3001.690785 L 857.618118 2880.562297 C 656.003045 3225.193454 635.039503 3507.614524 794.644521 3727.714863 Z M 794.644521 3727.714863 " stroke="#434586" stroke-width="9.681" stroke-opacity="1" stroke-miterlimit="3.864"/><path fill="#ffffff" d="M 807.777344 417.167969 C 792.785156 481.703125 802.816406 531.15625 837.867188 565.523438 L 805.050781 575.785156 C 773.871094 530.511719 766.335938 478.542969 782.453125 419.894531 L 807.777344 417.167969 " fill-opacity="1" fill-rule="evenodd"/><path fill="#ffffff" d="M 893.816406 669.835938 L 930.90625 699.609375 L 844.90625 813.851562 L 812.085938 793.484375 L 893.816406 669.835938 " fill-opacity="1" fill-rule="evenodd"/><path stroke-linecap="butt" transform="matrix(0.141242, 0, 0, -0.141218, 710.567323, 952.477365)" fill="none" stroke-linejoin="miter" d="M 1297.41001 2001.46102 L 1560.00742 1790.62719 L 951.124368 981.647109 L 718.755391 1125.872718 Z M 1297.41001 2001.46102 " stroke="#434586" stroke-width="9.681" stroke-opacity="1" stroke-miterlimit="3.864"/><path fill="#f6c4a9" d="M 936.003906 706.125 L 999.433594 730.179688 L 981.21875 753.515625 L 974.640625 811.109375 C 972.941406 824.328125 1019.617188 825.539062 1028.617188 769.542969 L 1064.347656 756.421875 L 1134.371094 815.5 L 1173.015625 868.734375 C 1179.277344 879.828125 1171.894531 900.242188 1157.703125 897.886719 L 1120.496094 871.644531 L 1091.34375 843.199219 L 1119.042969 880.402344 L 1152.589844 904.457031 C 1149.839844 919.058594 1142.796875 925.378906 1131.4375 923.421875 L 1086.949219 898.617188 L 1054.863281 860.707031 L 1081.859375 905.183594 L 1122.707031 929.246094 C 1113.652344 937.402344 1096.136719 940.402344 1083.804688 935.503906 L 1027.886719 892.066406 L 1078.214844 938.730469 C 1065.660156 947.75 1049.835938 949.289062 1038.101562 942.363281 L 1017.675781 927.792969 C 1019.855469 916.125 1011.519531 902.699219 997.980469 903.007812 C 1000.15625 885.492188 987.050781 870.6875 971.003906 876.007812 C 971.003906 860.707031 957.878906 839.558594 939.640625 840.285156 C 939.640625 824.234375 925.800781 813.847656 913.371094 816.957031 L 874.726562 787.78125 L 936.003906 706.125 " fill-opacity="1" fill-rule="evenodd"/><path fill="#231f20" d="M 1048.523438 434.738281 C 1040.566406 450.023438 1021.933594 444.308594 992.636719 417.59375 C 959.324219 445.75 924.175781 464.636719 887.1875 474.257812 L 889.15625 455.429688 L 893.789062 466.367188 L 899.703125 447.644531 L 902.136719 462.992188 L 913.007812 437.894531 L 912.476562 461.789062 L 925.425781 435.136719 L 925.355469 455.191406 L 935.675781 427.351562 L 936.296875 449.652344 L 949.277344 422.617188 L 947.238281 441.714844 L 961 418.777344 L 958.175781 437.511719 L 971.941406 411.679688 L 970.917969 427.179688 L 986.039062 405.082031 L 982.09375 417.203125 L 1001.210938 408.230469 L 997.769531 414.046875 L 1013.730469 414.046875 L 1004.9375 421.78125 L 1024.273438 421.828125 L 1011.535156 427.777344 L 1031.765625 425.773438 L 1018.871094 433.914062 C 1028.65625 439.851562 1038.535156 440.128906 1048.523438 434.738281 " fill-opacity="1" fill-rule="evenodd"/><path fill="#231f20" d="M 973.179688 548.28125 C 948.230469 551.773438 911.640625 543.867188 863.414062 524.558594 L 834.285156 539.1875 L 823.347656 513.992188 L 838.574219 533.277344 L 835.027344 508.445312 L 847.445312 527.886719 L 845.226562 505.640625 L 855.058594 523.820312 L 858.378906 506.378906 L 861.929688 521.597656 L 871.390625 506.007812 L 871.390625 522.710938 L 880.632812 508.445312 L 879.523438 527.148438 L 887.875 516.207031 L 888.984375 531.796875 L 897.707031 523.082031 L 896.96875 535.492188 L 911.605469 522.34375 L 911.605469 536.972656 L 920.324219 527.515625 L 918.851562 539.929688 L 927.199219 531.058594 L 926.089844 541.257812 L 933.851562 533.277344 L 933.480469 541.628906 L 940.726562 534.015625 L 941.464844 543.84375 L 949.078125 535.863281 L 950.1875 545.324219 L 956.84375 536.972656 L 958.171875 545.324219 L 962.972656 536.601562 L 964.085938 546.433594 L 969.480469 523.082031 L 973.179688 548.28125 " fill-opacity="1" fill-rule="evenodd"/><path fill="#657d93" d="M 1148.433594 541.554688 C 1146.878906 584.785156 999.417969 718.109375 998.898438 662.386719 C 1023.433594 686.851562 1094.769531 619.671875 1148.433594 541.554688 " fill-opacity="1" fill-rule="evenodd"/><path fill="#657d93" d="M 1032.40625 564.359375 C 1018.199219 596.183594 1007.257812 627.492188 999.589844 658.28125 L 1009.652344 662.507812 L 1004.402344 654.785156 L 1012.714844 656.53125 L 1006.148438 648.511719 L 1014.757812 652.152344 L 1008.777344 643.550781 L 1019.425781 645.007812 L 1011.402344 635.53125 L 1021.171875 636.117188 L 1014.171875 628.816406 L 1023.652344 629.695312 L 1017.675781 621.964844 L 1031.820312 623.714844 L 1021.464844 616.714844 L 1033.285156 616.28125 L 1024.527344 607.816406 L 1040.722656 611.320312 L 1028.03125 598.339844 L 1041.304688 603.300781 L 1030.074219 591.195312 L 1044.808594 594.835938 L 1034.882812 583.175781 L 1051.371094 586.523438 L 1038.679688 575.296875 L 1057.636719 577.632812 L 1041.011719 569.027344 L 1060.269531 565.816406 L 1032.40625 564.359375 " fill-opacity="1" fill-rule="evenodd"/><path fill="#657d93" d="M 1052.890625 560.226562 C 1009.945312 557.066406 985.796875 541.152344 980.457031 512.480469 C 977.351562 540.429688 993.933594 557.460938 1030.210938 563.570312 L 1052.890625 560.226562 " fill-opacity="1" fill-rule="evenodd"/><path fill="#dd3b30" d="M 1012.730469 507.683594 C 1012.730469 499.210938 1022.347656 492.351562 1034.210938 492.351562 C 1046.074219 492.351562 1055.6875 499.210938 1055.6875 507.683594 C 1055.6875 516.152344 1046.074219 523.019531 1034.210938 523.019531 C 1022.347656 523.019531 1012.730469 516.152344 1012.730469 507.683594 " fill-opacity="1" fill-rule="nonzero"/><path fill="#657d93" d="M 1012.328125 518.625 C 1012.328125 517.324219 1012.5625 516.058594 1012.984375 514.851562 C 1014.582031 522.191406 1023.472656 527.8125 1034.210938 527.8125 C 1044.253906 527.8125 1052.683594 522.898438 1055.039062 516.253906 C 1055.203125 517.023438 1055.292969 517.8125 1055.292969 518.625 C 1055.292969 527.089844 1045.675781 533.953125 1033.8125 533.953125 C 1021.953125 533.953125 1012.328125 527.089844 1012.328125 518.625 " fill-opacity="1" fill-rule="nonzero"/><path fill="#657d93" d="M 944.941406 457.558594 C 948.558594 483.988281 968.152344 491.796875 1005.179688 487.507812 C 969.183594 500.695312 947.257812 493.921875 937.941406 460.667969 L 944.941406 457.558594 " fill-opacity="1" fill-rule="evenodd"/><path fill="#dd3b30" d="M 961.921875 441.667969 C 961.921875 433.199219 971.539062 426.332031 983.402344 426.332031 C 995.265625 426.332031 1004.878906 433.199219 1004.878906 441.667969 C 1004.878906 450.140625 995.265625 457 983.402344 457 C 971.539062 457 961.921875 450.140625 961.921875 441.667969 " fill-opacity="1" fill-rule="nonzero"/><path fill="#657d93" d="M 961.527344 452.605469 C 961.527344 451.304688 961.753906 450.039062 962.175781 448.832031 C 963.773438 456.179688 972.664062 461.800781 983.402344 461.800781 C 993.445312 461.800781 1001.875 456.878906 1004.230469 450.238281 C 1004.394531 451.011719 1004.484375 451.800781 1004.484375 452.605469 C 1004.484375 461.074219 994.867188 467.941406 983.003906 467.941406 C 971.136719 467.941406 961.527344 461.074219 961.527344 452.605469 " fill-opacity="1" fill-rule="nonzero"/><path fill="#657d93" d="M 1069.070312 517.886719 C 1069.070312 517.042969 1069.21875 516.222656 1069.492188 515.445312 C 1070.523438 520.191406 1076.261719 523.820312 1083.199219 523.820312 C 1089.679688 523.820312 1095.121094 520.644531 1096.644531 516.351562 C 1096.753906 516.851562 1096.808594 517.359375 1096.808594 517.886719 C 1096.808594 523.351562 1090.597656 527.78125 1082.9375 527.78125 C 1075.28125 527.78125 1069.070312 523.351562 1069.070312 517.886719 " fill-opacity="1" fill-rule="nonzero"/><path fill="#657d93" d="M 1100.769531 533.03125 C 1100.769531 532.1875 1100.914062 531.371094 1101.191406 530.59375 C 1102.222656 535.339844 1107.964844 538.96875 1114.894531 538.96875 C 1121.378906 538.96875 1126.824219 535.796875 1128.339844 531.503906 C 1128.445312 532 1128.507812 532.515625 1128.507812 533.03125 C 1128.507812 538.5 1122.292969 542.933594 1114.636719 542.933594 C 1106.976562 542.933594 1100.769531 538.5 1100.769531 533.03125 " fill-opacity="1" fill-rule="nonzero"/><path fill="#657d93" d="M 1083.945312 561.355469 C 1083.945312 560.515625 1084.085938 559.699219 1084.363281 558.921875 C 1085.394531 563.660156 1091.136719 567.289062 1098.066406 567.289062 C 1104.550781 567.289062 1109.996094 564.117188 1111.511719 559.824219 C 1111.625 560.320312 1111.679688 560.835938 1111.679688 561.355469 C 1111.679688 566.820312 1105.472656 571.253906 1097.8125 571.253906 C 1090.148438 571.253906 1083.945312 566.820312 1083.945312 561.355469 " fill-opacity="1" fill-rule="nonzero"/><path fill="#657d93" d="M 1056.449219 547.894531 C 1056.449219 547.054688 1056.59375 546.238281 1056.871094 545.460938 C 1057.902344 550.199219 1063.644531 553.828125 1070.574219 553.828125 C 1077.058594 553.828125 1082.496094 550.65625 1084.019531 546.367188 C 1084.132812 546.863281 1084.1875 547.375 1084.1875 547.894531 C 1084.1875 553.359375 1077.980469 557.796875 1070.316406 557.796875 C 1062.65625 557.796875 1056.449219 553.359375 1056.449219 547.894531 " fill-opacity="1" fill-rule="nonzero"/><path fill="#fbe719" d="M 1032.539062 452.578125 L 1063.117188 478.664062 C 1071.910156 485.0625 1078.828125 483.472656 1083.871094 473.890625 C 1086.675781 483.429688 1074.894531 493.523438 1061.996094 484.832031 L 1023.285156 450.054688 L 1032.539062 452.578125 " fill-opacity="1" fill-rule="evenodd"/><path fill="#7dbc35" d="M 1092.460938 476.550781 C 1092.460938 472.574219 1096.976562 469.351562 1102.546875 469.351562 C 1108.121094 469.351562 1112.632812 472.574219 1112.632812 476.550781 C 1112.632812 480.527344 1108.121094 483.753906 1102.546875 483.753906 C 1096.976562 483.753906 1092.460938 480.527344 1092.460938 476.550781 " fill-opacity="1" fill-rule="nonzero"/><path fill="#657d93" d="M 1092.273438 481.691406 C 1092.273438 481.082031 1092.378906 480.484375 1092.582031 479.917969 C 1093.328125 483.371094 1097.503906 486.007812 1102.546875 486.007812 C 1107.265625 486.007812 1111.222656 483.699219 1112.328125 480.578125 C 1112.40625 480.941406 1112.449219 481.3125 1112.449219 481.691406 C 1112.449219 485.667969 1107.933594 488.890625 1102.359375 488.890625 C 1096.789062 488.890625 1092.273438 485.667969 1092.273438 481.691406 " fill-opacity="1" fill-rule="nonzero"/><path fill="#657d93" d="M 1007.550781 466.261719 C 989.359375 486.910156 959.699219 483.75 952.445312 456.960938 C 964.496094 477.230469 982.863281 480.328125 1007.550781 466.261719 " fill-opacity="1" fill-rule="evenodd"/><path fill="#657d93" d="M 1063.886719 531.070312 C 1049.675781 555.402344 1014.398438 552.539062 1004.6875 525.867188 C 1022.007812 546.921875 1041.742188 548.660156 1063.886719 531.070312 " fill-opacity="1" fill-rule="evenodd"/><path fill="#657d93" d="M 1037.542969 378.113281 L 1022.695312 382.128906 C 991.65625 356.730469 944.710938 357.40625 881.875 384.136719 C 942.734375 347.261719 994.625 345.246094 1037.542969 378.113281 " fill-opacity="1" fill-rule="evenodd"/><path fill="#657d93" d="M 1147.492188 564.648438 C 1151.441406 580.660156 1146.816406 598.890625 1133.625 619.335938 L 1107.386719 633.199219 L 1127.070312 614.972656 L 1112.480469 620.796875 L 1131.453125 602.578125 L 1119.054688 606.207031 L 1133.625 592.367188 L 1124.882812 593.828125 L 1147.492188 564.648438 " fill-opacity="1" fill-rule="evenodd"/><path fill="#231f20" d="M 1065.367188 762.484375 L 1034.308594 772.109375 C 1023.753906 812.484375 998.703125 833 977.195312 819.140625 C 981.753906 836.527344 1001.527344 840.765625 1016.363281 835.769531 L 1003.457031 825.484375 L 1034.308594 835.769531 L 1015.050781 820.449219 L 1034.960938 826.140625 L 1024.027344 812.136719 L 1042.175781 815.859375 L 1030.582031 802.511719 L 1048.527344 806.234375 L 1036.273438 790.914062 L 1056.84375 799.882812 L 1045.902344 783.046875 L 1067.125 790.914062 L 1058.15625 776.042969 L 1075.652344 783.703125 L 1069.097656 771.453125 L 1094.394531 786.042969 L 1065.367188 762.484375 " fill-opacity="1" fill-rule="evenodd"/><path fill="#231f20" d="M 879.390625 788.292969 L 917.90625 772.109375 L 900.617188 788.292969 L 926.222656 781.734375 L 911.554688 797.921875 L 930.8125 795.292969 L 919.871094 806.890625 L 935.402344 808.855469 L 913.25 813.933594 L 879.390625 788.292969 " fill-opacity="1" fill-rule="evenodd"/><path fill="#c09c7e" d="M 912.421875 831.460938 C 921.808594 835.144531 926.949219 841.367188 927.855469 850.109375 L 918.292969 854.714844 C 923.84375 849.96875 921.882812 842.210938 912.421875 831.460938 " fill-opacity="1" fill-rule="evenodd"/><path fill="#c09c7e" d="M 940.636719 855.175781 C 950.015625 858.863281 961.152344 867.84375 962.054688 876.59375 L 949.273438 887.527344 C 958.371094 877.050781 954.800781 866.113281 940.636719 855.175781 " fill-opacity="1" fill-rule="evenodd"/><path fill="#c09c7e" d="M 971.273438 885.101562 C 979.390625 888.289062 989.023438 896.0625 989.808594 903.625 L 978.746094 913.089844 C 986.617188 904.027344 983.527344 894.5625 971.273438 885.101562 " fill-opacity="1" fill-rule="evenodd"/><path fill="#c09c7e" d="M 992.691406 908.355469 C 999.699219 910.910156 1008.015625 917.140625 1008.691406 923.207031 L 999.144531 930.792969 C 1005.941406 923.519531 1003.273438 915.941406 992.691406 908.355469 " fill-opacity="1" fill-rule="evenodd"/><path fill="#c09c7e" d="M 1025.386719 938.074219 C 1016.699219 945.441406 1003.644531 945.441406 986.238281 938.074219 C 999.753906 949.28125 1013.574219 950.660156 1027.6875 942.214844 L 1025.386719 938.074219 " fill-opacity="1" fill-rule="evenodd"/><path fill="#c09c7e" d="M 982.261719 780.8125 C 972.617188 817.195312 993.527344 815.246094 998.0625 784.058594 C 991.808594 785.800781 986.546875 784.71875 982.261719 780.8125 " fill-opacity="1" fill-rule="evenodd"/><path fill="#c09c7e" d="M 1074.480469 756.328125 C 1117.21875 802.230469 1156.394531 823.398438 1192.003906 819.84375 L 1200.832031 800.785156 L 1187.785156 814.214844 L 1192.003906 799.375 L 1174.347656 817.730469 L 1180.363281 798.671875 L 1163.410156 811.015625 L 1166.609375 794.449219 L 1152.46875 804.683594 L 1157.78125 786.324219 L 1141.527344 797.265625 L 1147.539062 782.105469 L 1130.59375 787.730469 L 1136.605469 774.6875 L 1114.722656 777.5 L 1119.652344 767.96875 L 1105.898438 771.167969 L 1114.019531 760.933594 L 1098.476562 765.152344 L 1105.898438 754.921875 L 1074.480469 756.328125 " fill-opacity="1" fill-rule="evenodd"/><path fill="#c09c7e" d="M 1365.863281 801.796875 L 1249.648438 831.863281 L 1255.09375 809.988281 L 1266.035156 823.671875 L 1266.035156 808.617188 L 1273.589844 818.914062 L 1276.976562 807.292969 L 1283.84375 816.167969 L 1285.902344 803.855469 L 1294.785156 816.851562 L 1296.160156 801.109375 L 1305.039062 812.730469 L 1306.410156 799.734375 L 1314.605469 807.292969 L 1314.605469 795.664062 L 1324.855469 806.601562 L 1326.917969 797.679688 L 1336.480469 806.601562 L 1336.480469 787.421875 L 1348.792969 801.109375 L 1348.792969 790.859375 L 1365.863281 801.796875 " fill-opacity="1" fill-rule="evenodd"/><path fill="#c09c7e" d="M 1176.046875 862.890625 C 1190.246094 868.867188 1212.292969 860.121094 1242.191406 836.667969 C 1209.460938 855.167969 1184.804688 862.003906 1168.21875 857.171875 L 1176.046875 862.890625 " fill-opacity="1" fill-rule="evenodd"/><path fill="#1c9cdf" d="M 1351.933594 698.824219 C 1379.035156 727.847656 1386.597656 767.949219 1374.625 819.140625 C 1388.308594 839.121094 1404.25 840.472656 1422.445312 823.195312 C 1404.382812 748.863281 1380.878906 707.402344 1351.933594 698.824219 " fill-opacity="1" fill-rule="evenodd"/><g clip-path="url(#f5253a3953)"><path fill="#1c9cdf" d="M 1430.136719 815.894531 L 1419.195312 766.074219 L 1435.820312 813.074219 L 1438.25 777.824219 L 1452.828125 813.453125 L 1456.074219 782.265625 L 1468.640625 807.386719 L 1471.074219 786.324219 L 1484.023438 805.765625 L 1484.023438 786.324219 L 1492.957031 800.507812 L 1495.773438 785.515625 L 1506.714844 809.824219 L 1508.335938 782.265625 L 1518.46875 805.765625 L 1523.332031 783.890625 C 1523.332031 783.890625 1530.214844 802.945312 1530.214844 800.507812 C 1530.214844 798.074219 1533.464844 780.257812 1533.464844 780.257812 C 1533.464844 780.257812 1544.402344 806.960938 1544.402344 803.332031 C 1544.402344 799.703125 1543.59375 779.445312 1543.59375 779.445312 C 1543.59375 779.445312 1560.597656 806.960938 1560.597656 804.144531 C 1560.597656 801.324219 1556.15625 779.445312 1556.15625 779.445312 L 1570.347656 802.136719 L 1575.597656 778.636719 L 1585.726562 798.886719 L 1591.410156 786.324219 L 1635.703125 807.351562 C 1552.34375 823.015625 1465.085938 826.421875 1430.136719 815.894531 " fill-opacity="1" fill-rule="evenodd"/></g><path fill="#c09c7e" d="M 1469.386719 479.007812 L 1280.226562 393.625 C 1246.460938 387.402344 1212.753906 391.402344 1179.117188 405.621094 L 1157.769531 467.539062 L 1163.070312 477.945312 L 1182.828125 410.730469 C 1210.828125 394.359375 1243.117188 390.359375 1279.695312 398.734375 L 1469.386719 479.007812 " fill-opacity="1" fill-rule="evenodd"/><path fill="#c09c7e" d="M 1215.117188 428.03125 L 1179.644531 494.1875 C 1181.382812 511.8125 1187.324219 522.214844 1197.484375 525.410156 C 1188.347656 515.050781 1185.164062 503.226562 1187.9375 489.945312 L 1215.117188 428.03125 " fill-opacity="1" fill-rule="evenodd"/><path fill="#c09c7e" d="M 1267.695312 460.3125 L 1243.695312 462.964844 L 1203.652344 529.980469 C 1199.375 542.582031 1204.082031 549.410156 1217.769531 550.464844 C 1207.773438 543.949219 1204.941406 536.65625 1209.285156 528.59375 L 1244.753906 468.066406 L 1267.695312 460.3125 " fill-opacity="1" fill-rule="evenodd"/><path fill="#c09c7e" d="M 1302.636719 497.699219 L 1267.695312 505.125 L 1228.710938 555.574219 C 1231.242188 566.152344 1236.242188 572.378906 1243.695312 574.265625 L 1234.878906 555.574219 L 1270.878906 510.226562 L 1302.636719 497.699219 " fill-opacity="1" fill-rule="evenodd"/><path fill="#c09c7e" d="M 1437.246094 564.09375 C 1430.472656 565.132812 1405.761719 556.382812 1363.113281 537.84375 C 1337.609375 544.367188 1313.113281 547.496094 1289.621094 547.238281 C 1283.195312 556.304688 1274.742188 564.113281 1264.265625 570.660156 L 1280.226562 577.351562 L 1284.859375 586.738281 C 1274.648438 586.023438 1265.550781 580.402344 1257.570312 569.886719 L 1270.058594 548.78125 L 1271.988281 557.789062 L 1277.523438 540.671875 L 1279.453125 550.710938 L 1285.757812 534.367188 L 1285.757812 545.691406 L 1298.632812 530.890625 L 1299.789062 540.285156 L 1312.277344 529.347656 L 1311.117188 538.234375 L 1324.761719 530.890625 L 1323.597656 539.394531 L 1338.015625 527.296875 L 1335.695312 536.691406 L 1353.714844 526.910156 L 1350.5 536.296875 L 1366.585938 527.296875 L 1366.203125 534.367188 L 1381.777344 530.890625 L 1376.371094 538.621094 L 1395.929688 532.441406 L 1390.78125 539.773438 L 1404.425781 535.914062 L 1400.949219 544.921875 L 1420.511719 535.140625 L 1414.207031 547.625 L 1427.980469 540.671875 L 1424.375 552.382812 L 1436.863281 542.988281 L 1437.246094 564.09375 " fill-opacity="1" fill-rule="evenodd"/><path fill="#1c9cdf" d="M 1493.816406 479.324219 C 1457.867188 527.738281 1455.949219 578.535156 1488.082031 631.707031 C 1472.128906 624.472656 1461.882812 613.503906 1457.351562 598.820312 C 1440.148438 545.691406 1445.84375 494.589844 1493.816406 479.324219 " fill-opacity="1" fill-rule="evenodd"/><g clip-path="url(#8067456b5f)"><path fill="#1c9cdf" d="M 1635.703125 673.714844 L 1522.46875 641.527344 L 1514.65625 607.667969 L 1529.753906 636.851562 L 1531.839844 612.363281 L 1544.34375 639.4375 L 1551.113281 614.972656 L 1559.445312 635.800781 L 1564.140625 616.539062 C 1564.140625 616.539062 1575.597656 652.984375 1575.597656 651.417969 C 1575.597656 649.855469 1579.773438 617.039062 1579.773438 619.132812 C 1579.773438 621.214844 1590.710938 647.789062 1590.710938 647.789062 C 1590.710938 647.789062 1595.914062 619.648438 1595.914062 622.78125 C 1595.914062 625.910156 1601.652344 650.375 1601.652344 650.375 C 1601.652344 650.375 1605.289062 629.546875 1605.8125 631.632812 C 1606.328125 633.714844 1610.507812 657.160156 1610.507812 657.160156 C 1610.507812 657.160156 1614.660156 638.917969 1615.183594 640.484375 C 1615.703125 642.046875 1624.058594 663.398438 1624.058594 663.398438 C 1624.058594 663.398438 1627.6875 640.484375 1627.6875 643.089844 C 1627.6875 645.699219 1635.703125 673.714844 1635.703125 673.714844 " fill-opacity="1" fill-rule="evenodd"/></g><path fill="#e65d2a" d="M 1186.582031 387.753906 L 1099.0625 251.441406 L 1134.265625 226.894531 L 1175.105469 213.285156 C 1216.679688 199.449219 1223.4375 226.824219 1202.8125 242.78125 L 1168.160156 265.050781 L 1202.582031 319.738281 L 1233.261719 304.53125 L 1244.734375 379.492188 C 1222.003906 377.121094 1202.613281 379.878906 1186.582031 387.753906 " fill-opacity="1" fill-rule="evenodd"/><path fill="#807d82" d="M 1230.339844 249.84375 C 1209.324219 247.75 1191.882812 254.867188 1178.03125 271.179688 L 1183.371094 278.378906 C 1197.53125 262.640625 1214.695312 256.058594 1234.863281 258.640625 L 1230.339844 249.84375 " fill-opacity="1" fill-rule="evenodd"/><path fill="#807d82" d="M 1241.28125 270.644531 C 1220.265625 268.558594 1202.824219 275.675781 1188.96875 291.988281 L 1194.3125 299.183594 C 1208.472656 283.449219 1225.636719 276.867188 1245.804688 279.449219 L 1241.28125 270.644531 " fill-opacity="1" fill-rule="evenodd"/><path fill="#807d82" d="M 1245.804688 327.472656 C 1255.675781 345.847656 1264.925781 352.070312 1273.566406 346.140625 C 1270.339844 356.730469 1262.867188 360.023438 1251.148438 356.007812 L 1245.804688 327.472656 " fill-opacity="1" fill-rule="evenodd"/><path fill="#231f20" d="M 1230.875 382.160156 C 1183.371094 294.121094 1161.648438 281.242188 1166.019531 330.679688 C 1170.519531 314.957031 1179.628906 302.925781 1219.933594 384.832031 L 1230.875 382.160156 " fill-opacity="1" fill-rule="evenodd"/><path fill="#807d82" d="M 1116.984375 217.992188 L 1071.941406 243.722656 L 1063.148438 272.679688 L 1067.21875 279.328125 L 1077.519531 247.371094 L 1157.316406 203.191406 L 1116.984375 217.992188 " fill-opacity="1" fill-rule="evenodd"/><path fill="#e65d2a" d="M 1340.277344 558.578125 L 1314.992188 593.332031 L 1345.863281 651.667969 C 1356.082031 669.992188 1393.417969 655.21875 1384.761719 639.269531 L 1340.277344 558.578125 " fill-opacity="1" fill-rule="evenodd"/><path fill="#231f20" d="M 1329.578125 566.113281 C 1359.75 610.570312 1367.855469 634.0625 1353.886719 636.601562 C 1356.699219 623.714844 1347.382812 602.164062 1325.929688 571.945312 L 1329.578125 566.113281 " fill-opacity="1" fill-rule="evenodd"/><path fill="#e65d2a" d="M 1157.289062 193.519531 L 1136.710938 202.722656 C 1118.703125 178.21875 1099.457031 164.929688 1078.976562 162.871094 L 1066.636719 147.601562 L 984.851562 180.414062 C 994.613281 122.054688 1078.113281 103.417969 1126.207031 146.625 L 1157.289062 193.519531 " fill-opacity="1" fill-rule="evenodd"/><path fill="#807d82" d="M 1064.03125 151.933594 L 1071.507812 161.132812 L 1068.902344 169.042969 L 1060.128906 166.335938 L 1058.398438 172.074219 L 1049.625 171.207031 L 1047.457031 175.542969 L 1038.253906 173.8125 L 1036.953125 181.28125 L 1029.046875 178.578125 L 1026.878906 184.742188 L 1015.507812 182.582031 L 1012.472656 189.078125 L 1004.136719 186.910156 L 1000.992188 192.21875 L 993.625 191.351562 L 988.753906 200.019531 L 987.886719 183.011719 L 1064.03125 151.933594 " fill-opacity="1" fill-rule="evenodd"/><path fill="#807d82" d="M 1000.5625 197.414062 L 997.960938 229.796875 L 1005.867188 195.253906 Z M 1000.5625 197.414062 " fill-opacity="1" fill-rule="evenodd"/><path fill="#807d82" d="M 1015.507812 190.488281 L 1012.472656 221.460938 L 1021.574219 188.214844 Z M 1015.507812 190.488281 " fill-opacity="1" fill-rule="evenodd"/><path fill="#807d82" d="M 1031.214844 183.449219 L 1026.011719 214.527344 L 1036.515625 186.046875 Z M 1031.214844 183.449219 " fill-opacity="1" fill-rule="evenodd"/><path fill="#807d82" d="M 1043.023438 180.84375 L 1038.253906 209.65625 L 1048.324219 179.976562 Z M 1043.023438 180.84375 " fill-opacity="1" fill-rule="evenodd"/><path fill="#807d82" d="M 1060.128906 174.675781 L 1056.230469 200.449219 L 1068.035156 175.105469 Z M 1060.128906 174.675781 " fill-opacity="1" fill-rule="evenodd"/><path fill="#231f20" d="M 999.574219 436.984375 L 989.527344 431.429688 L 996.460938 438.539062 L 985.078125 433.425781 L 992.457031 440.980469 L 981.519531 436.535156 L 987.523438 443.917969 L 976.136719 439.425781 L 981.519531 445.476562 L 971.246094 442.140625 L 976.582031 447.921875 L 967.199219 445.25 C 982.1875 458.414062 1004.0625 452.140625 999.574219 436.984375 " fill-opacity="1" fill-rule="evenodd"/><path fill="#231f20" d="M 1050.269531 503.71875 L 1040.21875 498.164062 L 1047.160156 505.273438 L 1035.773438 500.167969 L 1043.152344 507.722656 L 1032.21875 503.277344 L 1038.222656 510.660156 L 1026.835938 506.167969 L 1032.21875 512.214844 L 1021.941406 508.875 L 1027.28125 514.65625 L 1017.894531 511.992188 C 1032.882812 525.148438 1054.761719 518.882812 1050.269531 503.71875 " fill-opacity="1" fill-rule="evenodd"/><path fill="#231f20" d="M 923.910156 472.8125 C 923.574219 500.9375 936.40625 518.238281 963.644531 521.476562 L 930.492188 522.480469 L 942.101562 518.457031 L 919.550781 515.226562 L 935.179688 512.546875 L 908.609375 505.628906 L 924.796875 504.289062 L 902.695312 499.261719 L 922.230469 496.917969 L 906.601562 492.007812 L 921.894531 490.335938 L 904.257812 484.757812 L 919.214844 483.75 L 907.269531 479.398438 L 923.910156 472.8125 " fill-opacity="1" fill-rule="evenodd"/><path fill="#231f20" d="M 1093.585938 895.039062 L 1113.808594 889.746094 L 1100.542969 898.363281 L 1121.445312 899.355469 L 1107.84375 903.65625 L 1126.742188 905.648438 L 1116.792969 908.632812 L 1134.359375 914.257812 L 1123.089844 914.257812 L 1093.585938 895.039062 " fill-opacity="1" fill-rule="evenodd"/><path fill="#231f20" d="M 1126.40625 869.515625 L 1154.261719 891.71875 L 1165.515625 876.152344 L 1152.601562 884.433594 L 1158.566406 871.839844 L 1147.625 879.136719 L 1150.941406 869.847656 L 1142.328125 871.839844 L 1146.625 864.214844 L 1126.40625 869.515625 " fill-opacity="1" fill-rule="evenodd"/><path fill="#231f20" d="M 1069.382812 938.128906 C 1053.527344 945.734375 1039.277344 942.53125 1026.625 928.519531 L 1044.863281 923.207031 L 1038.558594 929.179688 L 1047.839844 927.519531 L 1040.21875 932.832031 L 1052.152344 930.839844 L 1047.507812 934.808594 L 1060.769531 933.496094 L 1054.808594 938.460938 L 1069.382812 938.128906 " fill-opacity="1" fill-rule="evenodd"/><path fill="#231f20" d="M 1064.394531 912.636719 L 1090.789062 930.492188 L 1106.675781 929.996094 L 1088.253906 925.550781 L 1093.261719 922.027344 L 1081.832031 922.027344 L 1086.773438 918.070312 L 1064.394531 912.636719 " fill-opacity="1" fill-rule="evenodd"/><path fill="#1c9cdf" d="M 1386.847656 691.21875 C 1408.457031 705.019531 1424.15625 730.726562 1433.9375 768.335938 C 1428.109375 726.742188 1415.503906 700.480469 1396.117188 689.550781 L 1386.847656 691.21875 " fill-opacity="1" fill-rule="evenodd"/><path fill="#657d93" d="M 730.203125 556.023438 L 883.96875 662.976562 L 866.949219 681.199219 L 871.203125 664.796875 L 857.828125 668.441406 L 865.121094 658.109375 L 842.640625 661.757812 L 849.933594 650.214844 L 829.265625 654.464844 L 838.386719 642.3125 L 806.175781 646.5625 L 820.757812 632.589844 L 800.097656 636.839844 L 811.644531 625.296875 L 778.820312 629.550781 L 793.410156 616.179688 L 774.566406 620.4375 L 781.863281 609.5 L 763.632812 614.359375 L 772.746094 602.8125 L 745.398438 605.855469 L 756.332031 594.300781 L 736.277344 594.300781 L 742.964844 580.328125 L 730.203125 556.023438 " fill-opacity="1" fill-rule="evenodd"/><path fill="#1c9cdf" d="M 1546.855469 499.234375 C 1502.136719 520.34375 1487.332031 562.296875 1502.445312 625.082031 C 1498.308594 574.03125 1513.109375 532.078125 1546.855469 499.234375 " fill-opacity="1" fill-rule="evenodd"/><g fill="#0e0e0c" fill-opacity="1"><g transform="translate(75.395074, 504.000024)"><g><path d="M 21.5625 -52.28125 L 21.5625 -39.140625 L 42.75 -39.140625 L 42.75 -26.921875 L 21.5625 -26.921875 L 21.5625 -12.671875 L 45.53125 -12.671875 L 45.53125 0 L 5.734375 0 L 5.734375 -64.953125 L 45.53125 -64.953125 L 45.53125 -52.28125 Z M 21.5625 -52.28125 "/></g></g></g><g fill="#0e0e0c" fill-opacity="1"><g transform="translate(130.722317, 504.000024)"><g><path d="M 21.5625 -68.46875 L 21.5625 0 L 5.734375 0 L 5.734375 -68.46875 Z M 21.5625 -68.46875 "/></g></g></g><g fill="#0e0e0c" fill-opacity="1"><g transform="translate(188.178058, 504.000024)"><g><path d="M 52.46875 -64.953125 L 52.46875 -52.28125 L 35.25 -52.28125 L 35.25 0 L 19.4375 0 L 19.4375 -52.28125 L 2.21875 -52.28125 L 2.21875 -64.953125 Z M 52.46875 -64.953125 "/></g></g></g><g fill="#0e0e0c" fill-opacity="1"><g transform="translate(248.131272, 504.000024)"><g><path d="M 21.5625 -43.03125 C 23.40625 -45.863281 25.710938 -48.097656 28.484375 -49.734375 C 31.265625 -51.367188 34.351562 -52.1875 37.75 -52.1875 L 37.75 -35.4375 L 33.40625 -35.4375 C 29.457031 -35.4375 26.492188 -34.585938 24.515625 -32.890625 C 22.546875 -31.191406 21.5625 -28.21875 21.5625 -23.96875 L 21.5625 0 L 5.734375 0 L 5.734375 -51.625 L 21.5625 -51.625 Z M 21.5625 -43.03125 "/></g></g></g><g fill="#0e0e0c" fill-opacity="1"><g transform="translate(293.003806, 504.000024)"><g><path d="M 56.71875 -51.625 L 56.71875 0 L 40.90625 0 L 40.90625 -7.03125 C 39.300781 -4.75 37.125 -2.910156 34.375 -1.515625 C 31.625 -0.128906 28.585938 0.5625 25.265625 0.5625 C 21.316406 0.5625 17.828125 -0.316406 14.796875 -2.078125 C 11.773438 -3.835938 9.429688 -6.382812 7.765625 -9.71875 C 6.109375 -13.050781 5.28125 -16.96875 5.28125 -21.46875 L 5.28125 -51.625 L 21 -51.625 L 21 -23.59375 C 21 -20.132812 21.894531 -17.445312 23.6875 -15.53125 C 25.476562 -13.625 27.882812 -12.671875 30.90625 -12.671875 C 33.988281 -12.671875 36.425781 -13.625 38.21875 -15.53125 C 40.007812 -17.445312 40.90625 -20.132812 40.90625 -23.59375 L 40.90625 -51.625 Z M 56.71875 -51.625 "/></g></g></g><g fill="#0e0e0c" fill-opacity="1"><g transform="translate(360.636142, 504.000024)"><g><path d="M 54.40625 -26.65625 C 54.40625 -25.164062 54.3125 -23.617188 54.125 -22.015625 L 18.328125 -22.015625 C 18.566406 -18.804688 19.597656 -16.351562 21.421875 -14.65625 C 23.242188 -12.96875 25.476562 -12.125 28.125 -12.125 C 32.070312 -12.125 34.816406 -13.789062 36.359375 -17.125 L 53.203125 -17.125 C 52.335938 -13.726562 50.78125 -10.671875 48.53125 -7.953125 C 46.28125 -5.242188 43.457031 -3.117188 40.0625 -1.578125 C 36.675781 -0.0351562 32.882812 0.734375 28.6875 0.734375 C 23.625 0.734375 19.117188 -0.34375 15.171875 -2.5 C 11.222656 -4.65625 8.140625 -7.738281 5.921875 -11.75 C 3.703125 -15.757812 2.59375 -20.445312 2.59375 -25.8125 C 2.59375 -31.175781 3.6875 -35.863281 5.875 -39.875 C 8.0625 -43.882812 11.128906 -46.96875 15.078125 -49.125 C 19.023438 -51.289062 23.5625 -52.375 28.6875 -52.375 C 33.6875 -52.375 38.128906 -51.320312 42.015625 -49.21875 C 45.898438 -47.125 48.9375 -44.132812 51.125 -40.25 C 53.3125 -36.363281 54.40625 -31.832031 54.40625 -26.65625 Z M 38.21875 -30.8125 C 38.21875 -33.53125 37.289062 -35.691406 35.4375 -37.296875 C 33.582031 -38.898438 31.269531 -39.703125 28.5 -39.703125 C 25.84375 -39.703125 23.601562 -38.925781 21.78125 -37.375 C 19.96875 -35.832031 18.84375 -33.644531 18.40625 -30.8125 Z M 38.21875 -30.8125 "/></g></g></g><g fill="#0e0e0c" fill-opacity="1"><g transform="translate(422.902343, 504.000024)"><g><path d="M 2.59375 -25.71875 C 2.59375 -30.84375 3.65625 -35.410156 5.78125 -39.421875 C 7.90625 -43.429688 10.769531 -46.5625 14.375 -48.8125 C 17.988281 -51.0625 21.925781 -52.1875 26.1875 -52.1875 C 29.457031 -52.1875 32.382812 -51.613281 34.96875 -50.46875 C 37.5625 -49.332031 39.660156 -47.742188 41.265625 -45.703125 L 41.265625 -51.625 L 57.09375 -51.625 L 57.09375 24.609375 L 41.265625 24.609375 L 41.265625 -6.484375 C 39.472656 -4.316406 37.296875 -2.585938 34.734375 -1.296875 C 32.179688 -0.00390625 29.269531 0.640625 26 0.640625 C 21.800781 0.640625 17.910156 -0.46875 14.328125 -2.6875 C 10.753906 -4.90625 7.90625 -8.019531 5.78125 -12.03125 C 3.65625 -16.039062 2.59375 -20.601562 2.59375 -25.71875 Z M 41.265625 -25.8125 C 41.265625 -28.59375 40.722656 -30.921875 39.640625 -32.796875 C 38.566406 -34.679688 37.164062 -36.101562 35.4375 -37.0625 C 33.707031 -38.019531 31.890625 -38.5 29.984375 -38.5 C 28.128906 -38.5 26.335938 -38.019531 24.609375 -37.0625 C 22.878906 -36.101562 21.457031 -34.664062 20.34375 -32.75 C 19.238281 -30.84375 18.6875 -28.5 18.6875 -25.71875 C 18.6875 -22.945312 19.238281 -20.617188 20.34375 -18.734375 C 21.457031 -16.859375 22.878906 -15.441406 24.609375 -14.484375 C 26.335938 -13.523438 28.128906 -13.046875 29.984375 -13.046875 C 31.828125 -13.046875 33.628906 -13.523438 35.390625 -14.484375 C 37.148438 -15.441406 38.566406 -16.875 39.640625 -18.78125 C 40.722656 -20.695312 41.265625 -23.039062 41.265625 -25.8125 Z M 41.265625 -25.8125 "/></g></g></g><g fill="#0e0e0c" fill-opacity="1"><g transform="translate(490.997272, 504.000024)"><g><path d="M 56.71875 -51.625 L 56.71875 0 L 40.90625 0 L 40.90625 -7.03125 C 39.300781 -4.75 37.125 -2.910156 34.375 -1.515625 C 31.625 -0.128906 28.585938 0.5625 25.265625 0.5625 C 21.316406 0.5625 17.828125 -0.316406 14.796875 -2.078125 C 11.773438 -3.835938 9.429688 -6.382812 7.765625 -9.71875 C 6.109375 -13.050781 5.28125 -16.96875 5.28125 -21.46875 L 5.28125 -51.625 L 21 -51.625 L 21 -23.59375 C 21 -20.132812 21.894531 -17.445312 23.6875 -15.53125 C 25.476562 -13.625 27.882812 -12.671875 30.90625 -12.671875 C 33.988281 -12.671875 36.425781 -13.625 38.21875 -15.53125 C 40.007812 -17.445312 40.90625 -20.132812 40.90625 -23.59375 L 40.90625 -51.625 Z M 56.71875 -51.625 "/></g></g></g><g fill="#0e0e0c" fill-opacity="1"><g transform="translate(558.629609, 504.000024)"><g><path d="M 54.40625 -26.65625 C 54.40625 -25.164062 54.3125 -23.617188 54.125 -22.015625 L 18.328125 -22.015625 C 18.566406 -18.804688 19.597656 -16.351562 21.421875 -14.65625 C 23.242188 -12.96875 25.476562 -12.125 28.125 -12.125 C 32.070312 -12.125 34.816406 -13.789062 36.359375 -17.125 L 53.203125 -17.125 C 52.335938 -13.726562 50.78125 -10.671875 48.53125 -7.953125 C 46.28125 -5.242188 43.457031 -3.117188 40.0625 -1.578125 C 36.675781 -0.0351562 32.882812 0.734375 28.6875 0.734375 C 23.625 0.734375 19.117188 -0.34375 15.171875 -2.5 C 11.222656 -4.65625 8.140625 -7.738281 5.921875 -11.75 C 3.703125 -15.757812 2.59375 -20.445312 2.59375 -25.8125 C 2.59375 -31.175781 3.6875 -35.863281 5.875 -39.875 C 8.0625 -43.882812 11.128906 -46.96875 15.078125 -49.125 C 19.023438 -51.289062 23.5625 -52.375 28.6875 -52.375 C 33.6875 -52.375 38.128906 -51.320312 42.015625 -49.21875 C 45.898438 -47.125 48.9375 -44.132812 51.125 -40.25 C 53.3125 -36.363281 54.40625 -31.832031 54.40625 -26.65625 Z M 38.21875 -30.8125 C 38.21875 -33.53125 37.289062 -35.691406 35.4375 -37.296875 C 33.582031 -38.898438 31.269531 -39.703125 28.5 -39.703125 C 25.84375 -39.703125 23.601562 -38.925781 21.78125 -37.375 C 19.96875 -35.832031 18.84375 -33.644531 18.40625 -30.8125 Z M 38.21875 -30.8125 "/></g></g></g></svg>